<svg height="505pt" viewBox="0 -3 505.78837 505" width="505pt" xmlns="http://www.w3.org/2000/svg"><path d="m7.816406 256.109375c-8.402344 11.996094-10.066406 27.464844-4.40625 40.972656 5.664063 13.507813 17.855469 23.167969 32.300782 25.589844-9.503907 11.101563-12.644532 26.308594-8.3125 40.269531 4.332031 13.960938 15.523437 24.722656 29.648437 28.5 3.617187.96875 7.34375 1.460938 11.089844 1.464844 2.609375-.042969 5.203125-.328125 7.757812-.851562-4.941406 13.054687-3.15625 27.707031 4.777344 39.191406 7.929687 11.488281 20.996094 18.351562 34.953125 18.359375 1.253906 0 2.5625-.054688 3.789062-.164063 6.359376-.597656 12.5-2.621094 17.964844-5.921875-.375 18.128907 10.824219 34.488281 27.863282 40.695313 17.039062 6.203125 36.136718.878906 47.511718-13.242188 5.898438 17.09375 21.996094 28.5625 40.078125 28.5625 18.085938 0 34.179688-11.46875 40.082031-28.5625 11.402344 14.046875 30.453126 19.320313 47.453126 13.132813s28.207031-22.472657 27.914062-40.558594c5.453125 3.292969 11.578125 5.316406 17.921875 5.921875 1.261719.109375 2.558594.160156 3.785156.160156 13.960938-.007812 27.027344-6.867187 34.957031-18.355468 7.933594-11.488282 9.71875-26.136719 4.777344-39.191407 2.550782.523438 5.148438.808594 7.753906.851563 3.746094-.003906 7.476563-.496094 11.09375-1.46875 14.171876-3.710938 25.421876-14.46875 29.761719-28.460938 4.339844-13.988281 1.15625-29.230468-8.425781-40.308594 17.933594-2.820312 32.089844-16.722656 35.238281-34.601562 3.144531-17.878906-5.417969-35.78125-21.3125-44.554688 15.855469-8.761718 24.394531-26.628906 21.25-44.472656s-17.277343-31.714844-35.175781-34.527344c11.917969-13.664062 13.832031-33.394531 4.761719-49.089843-9.074219-15.699219-27.121094-23.894531-44.914063-20.386719 6.53125-16.90625 1.589844-36.089844-12.292968-47.734375-13.882813-11.648437-33.636719-13.175781-49.144532-3.808594.25-20.761719-14.519531-38.675781-34.945312-42.390625-20.429688-3.714844-40.554688 7.851563-47.632813 27.371094-.214843.574219-.265625 1.160156-.453125 1.707031h-33.996094c-3.601562-10.191406-13.21875-17.023437-24.03125-17.066406h-17.066406c-3.523437-3.613281-7.660156-6.570313-12.21875-8.738281-13.265625-6.210938-28.796875-5.148438-41.097656 2.804687s-19.640625 21.683594-19.421875 36.328125c-15.515625-9.300781-35.222656-7.738281-49.082031 3.890625-13.859375 11.628907-18.820313 30.765625-12.355469 47.660157-17.78125-3.496094-35.820313 4.691406-44.890625 20.382812-9.070312 15.6875-7.167969 35.40625 4.730469 49.070312-17.902344 2.796876-32.050781 16.664063-35.207031 34.511719-3.152344 17.84375 5.378906 35.722657 21.238281 44.488281-5.578125 3.078126-10.386719 7.375-14.070313 12.570313zm69.90625-74.085937c-.804687-1.132813-1.785156-2.074219-2.671875-3.121094 1.363281-.222656 2.738281-.453125 4.105469-.855469 22.757812-6.101563 36.265625-29.496094 30.164062-52.257813-.375-1.390624-1-2.664062-1.5-3.992187 1.398438.261719 2.753907.65625 4.1875.785156 1.28125.109375 2.558594.160157 3.796876.160157 22.09375-.039063 40.503906-16.9375 42.429687-38.945313.058594-1.398437.042969-2.796875-.042969-4.191406 10.933594 6.632812 24.289063 7.925781 36.292969 3.515625 9.378906-3.4375 17.234375-10.089844 22.167969-18.78125h10.605468c10.816407-.035156 20.441407-6.867188 24.046876-17.066406h32.207031c2.054687 21.804687 20.363281 38.46875 42.265625 38.46875 7.664062-.046876 15.175781-2.148438 21.75-6.09375-.085938 1.394531-.101563 2.792968-.042969 4.191406 1.925781 22.007812 20.335937 38.90625 42.429687 38.945312 1.253907 0 2.558594-.050781 3.796876-.160156 1.433593-.128906 2.789062-.523438 4.191406-.785156-.503906 1.328125-1.128906 2.558594-1.503906 3.992187-6.101563 22.761719 7.40625 46.15625 30.164062 52.257813 1.367188.359375 2.742188.589844 4.105469.851562-.851563 1.050782-1.867188 1.988282-2.671875 3.125-6.914063 9.859375-9.328125 22.1875-6.648438 33.929688 2.679688 11.738281 10.207032 21.796875 20.710938 27.679687-10.511719 5.835938-18.050782 15.863281-20.734375 27.585938-2.683594 11.71875-.257813 24.027343 6.671875 33.855469.855468 1.175781 1.851562 2.160156 2.773437 3.242187-1.398437.230469-2.804687.324219-4.207031.691406-22.757812 6.101563-36.265625 29.496094-30.164062 52.257813.375 1.390625 1 2.664062 1.503906 3.996094-1.402344-.265626-2.757813-.660157-4.191406-.785157-12.121094-1.613281-24.324219 2.285157-33.265626 10.625-8.941406 8.335938-13.679687 20.238281-12.917968 32.441407-10.308594-6.238282-22.785156-7.792969-34.308594-4.269532-11.523438 3.519532-21.003906 11.78125-26.0625 22.71875-.546875 1.320313-1.023438 2.667969-1.425781 4.035156-7.988281-9.976562-20.074219-15.78125-32.855469-15.78125-12.777344 0-24.863281 5.804688-32.851562 15.78125-.40625-1.367187-.878907-2.714843-1.425782-4.035156-5.054687-10.941406-14.535156-19.207031-26.058594-22.726562-11.527343-3.523438-24.007812-1.96875-34.3125 4.277344.242188-12.050782-4.652343-23.636719-13.46875-31.855469-8.8125-8.21875-20.710937-12.296875-32.714843-11.210938-1.433594.125-2.789063.519531-4.191407.785157.503907-1.332032 1.128907-2.5625 1.503907-3.996094 2.945312-10.941406 1.417969-22.609375-4.246094-32.421875-5.667969-9.816407-15.003906-16.972657-25.953125-19.894531-1.402344-.367188-2.808594-.460938-4.207031-.691407.921875-1.085937 1.945312-2.066406 2.773437-3.242187 6.921875-9.828125 9.347656-22.128906 6.671875-33.847656-2.679687-11.71875-10.207031-21.75-20.710937-27.59375 10.5-5.890626 18.015625-15.949219 20.691406-27.6875 2.671875-11.734376.257812-24.058594-6.652344-33.914063zm-16.242187 192.929687c-10.019531-2.667969-17.441407-11.117187-18.792969-21.402344-1.351562-10.28125 3.632812-20.363281 12.625-25.53125 3.890625-2.246093 8.308594-3.425781 12.800781-3.414062 2.25-.003907 4.488281.28125 6.664063.855469 9.71875 2.597656 17.007812 10.664062 18.605468 20.59375 1.601563 9.933593-2.78125 19.878906-11.191406 25.402343h-.058594c-.417968.269531-.757812.613281-1.195312.851563-5.871094 3.441406-12.875 4.394531-19.457031 2.644531zm37.777343 51.617187c-7.925781-6.65625-11.0625-17.429687-7.949218-27.304687 3.113281-9.871094 11.863281-16.894531 22.175781-17.800781.757813-.066406 1.515625-.101563 2.277344-.101563 11.304687.019531 21.257812 7.453125 24.488281 18.289063 3.230469 10.832031-1.03125 22.5-10.480469 28.707031s-21.851562 5.480469-30.511719-1.789063zm91.445313 40.636719c-11.070313 5.164063-24.246094 1.785157-31.464844-8.066406-7.222656-9.851563-6.476562-23.429687 1.773438-32.433594 8.253906-9.003906 21.71875-10.921875 32.160156-4.582031 10.4375 6.335938 14.945313 19.167969 10.765625 30.644531-2.308594 6.378907-7.066406 11.578125-13.21875 14.4375zm62.15625 15.265625c-14.136719 0-25.601563-11.460937-25.601563-25.597656 0-14.140625 11.464844-25.601562 25.601563-25.601562s25.601563 11.460937 25.601563 25.601562c0 14.136719-11.464844 25.597656-25.601563 25.597656zm81.722656-14.402344c-6.378906 2.324219-13.421875 2.019532-19.578125-.851562s-10.917968-8.066406-13.238281-14.449219c-2.855469-7.847656-1.707031-16.589843 3.078125-23.433593 4.789062-6.839844 12.609375-10.914063 20.957031-10.921876 12.4375-.023437 23.09375 8.894532 25.257813 21.144532 2.164062 12.246094-4.785156 24.277344-16.476563 28.519531zm71.878907-41.5c-8.664063 7.257813-21.058594 7.972657-30.5 1.765626-9.441407-6.207032-13.699219-17.867188-10.472657-28.699219 3.226563-10.828125 13.167969-18.261719 24.46875-18.292969.753907 0 1.515625.035156 2.277344.105469 10.320313.894531 19.082031 7.925781 22.195313 17.804687 3.117187 9.882813-.03125 20.664063-7.96875 27.316406zm53.316406-63.5625c-3.394532 5.886719-8.988282 10.183594-15.550782 11.945313s-13.554687.839844-19.4375-2.558594c-.433593-.257812-.785156-.597656-1.203124-.855469-8.40625-5.523437-12.78125-15.472656-11.171876-25.402343 1.605469-9.929688 8.894532-17.988281 18.613282-20.582031 2.175781-.574219 4.414062-.859376 6.664062-.851563 9.101563.046875 17.492188 4.925781 22.039063 12.8125 4.546875 7.882813 4.5625 17.589844.046875 25.492187zm28.390625-77.976562c-2.105469 12.027344-12.414063 20.898438-24.625 21.179688-12.210938.285156-22.921875-8.097657-25.578125-20.019532-2.660156-11.917968 3.46875-24.058594 14.640625-28.992187 11.171875-4.933594 24.273437-1.289063 31.292969 8.707031 3.917968 5.550781 5.453124 12.433594 4.269531 19.125zm0-82.980469c1.796875 10.199219-2.722657 20.476563-11.453125 26.039063-8.734375 5.566406-19.960938 5.320312-28.441406-.617188-8.484376-5.9375-12.550782-16.402344-10.3125-26.511718 2.242187-10.109376 10.355468-17.875 20.550781-19.671876 1.484375-.269531 2.988281-.402343 4.5-.398437 12.402343.027344 23.003906 8.941406 25.15625 21.160156zm-43.929688-89.921875c10.019531 2.667969 17.441407 11.117188 18.792969 21.398438 1.351562 10.285156-3.632812 20.367187-12.625 25.535156-.503906.296875-1.058594.457031-1.578125.714844-12.078125 6.007812-26.746094 1.5625-33.453125-10.140625-6.710938-11.703125-3.136719-26.605469 8.152344-33.992188l.074218-.042969c.417969-.273437.761719-.617187 1.195313-.855468 3.890625-2.246094 8.308594-3.425782 12.800781-3.414063 2.238282-.023437 4.46875.246094 6.640625.796875zm-54.230469-57.601562c12.003907.011718 22.382813 8.363281 24.96875 20.082031 2.585938 11.722656-3.316406 23.667969-14.199218 28.730469-10.882813 5.0625-23.820313 1.882812-31.121094-7.644532-7.296875-9.527343-6.996094-22.847656.722656-32.039062 4.859375-5.808594 12.054688-9.15625 19.628906-9.128906zm-75.007812-34.652344c10.121094-4.925781 22.261719-2.796875 30.101562 5.277344 7.839844 8.078125 9.609376 20.277344 4.386719 30.246094-5.222656 9.972656-16.257812 15.464843-27.363281 13.617187-11.101562-1.847656-19.765625-10.617187-21.480469-21.742187h3.414063c4.714844 0 8.535156-3.820313 8.535156-8.53125 0-4.714844-3.820312-8.535157-8.535156-8.535157h-.324219c2.605469-4.519531 6.535156-8.128906 11.265625-10.332031zm-79.207031 18.867188c.003906 2.296874-.941407 4.496093-2.613281 6.074218-1.554688 1.59375-3.695313 2.480469-5.921876 2.457032h-5.050781c.585938-5.75-.019531-11.558594-1.773437-17.066407h6.824218c4.714844 0 8.535157 3.820313 8.535157 8.535157zm-64.65625-19.730469c6.390625-2.351563 13.460937-2.042969 19.625.851562 6.160156 2.859375 10.921875 8.054688 13.234375 14.441407 4.832031 13.285156-2.023438 27.96875-15.308594 32.800781s-27.972656-2.015625-32.804688-15.300781c-4.835937-13.285157 2.011719-27.972657 15.296876-32.808594zm-71.878907 41.496093c7.933594-6.65625 19.09375-7.878906 28.277344-3.097656 9.1875 4.78125 14.585938 14.625 13.683594 24.941406-.902344 10.316407-7.933594 19.070313-17.808594 22.183594-9.875 3.113282-20.652344-.03125-27.308594-7.964844-4.394531-5.1875-6.535156-11.914062-5.941406-18.6875.59375-6.773437 3.871094-13.027343 9.097656-17.375zm-53.316406 63.566407c3.378906-5.898438 8.972656-10.199219 15.539063-11.945313 2.175781-.574218 4.417969-.863281 6.667969-.855468 4.492187-.011719 8.90625 1.167968 12.796874 3.414062.4375.253906.785157.597656 1.203126.851562h.054687c11.324219 7.363282 14.933594 22.289063 8.222656 34.011719-6.710937 11.726563-21.40625 16.171875-33.492187 10.132813-.527344-.257813-1.082032-.425782-1.59375-.714844-5.886719-3.394531-10.1875-8.988281-11.945313-15.550781-1.761719-6.5625-.839843-13.554688 2.558594-19.4375zm-28.386718 77.976562c2.148437-12.21875 12.75-21.132812 25.15625-21.160156 1.507812-.003906 3.011718.128906 4.496093.398437 10.195313 1.796876 18.308594 9.5625 20.550781 19.671876 2.238282 10.109374-1.828124 20.574218-10.3125 26.511718-8.480468 5.9375-19.707031 6.183594-28.441406.617188-8.730468-5.5625-13.25-15.839844-11.449218-26.039063zm4.265624 63.855469c7.019532-9.996094 20.121094-13.640625 31.292969-8.707031 11.171875 4.933593 17.300781 17.074219 14.640625 28.992187-2.65625 11.921875-13.367187 20.304688-25.578125 20.019532-12.207031-.28125-22.519531-9.152344-24.621093-21.179688-1.199219-6.6875.328124-13.574219 4.238281-19.125zm0 0"/></svg>