<?xml version="1.0" standalone="no"?>
<!DOCTYPE svg PUBLIC "-//W3C//DTD SVG 20010904//EN"
 "http://www.w3.org/TR/2001/REC-SVG-20010904/DTD/svg10.dtd">
<svg version="1.0" xmlns="http://www.w3.org/2000/svg"
 width="595.000000pt" height="437.000000pt" viewBox="0 0 595.000000 437.000000"
 preserveAspectRatio="xMidYMid meet">

<g transform="translate(0.000000,437.000000) scale(0.100000,-0.100000)"
fill="#000000" stroke="none">
<path d="M4845 4260 c-147 -20 -317 -87 -439 -174 -124 -89 -245 -235 -312
-380 -66 -144 -79 -211 -78 -406 0 -161 2 -182 27 -263 54 -176 135 -306 270
-433 290 -273 705 -339 1065 -169 236 112 416 311 498 552 41 120 54 199 54
323 -1 574 -514 1024 -1085 950z m156 -223 c67 -44 69 -58 69 -386 l0 -293
195 -244 c131 -164 197 -256 204 -282 17 -62 -9 -126 -66 -163 -33 -22 -109
-25 -149 -7 -16 8 -122 130 -256 298 l-228 285 0 364 0 364 44 43 c41 41 47
44 98 44 41 0 64 -6 89 -23z"/>
<path d="M2162 3779 c-69 -34 -104 -71 -138 -144 l-24 -50 0 -1410 0 -1410 24
-50 c29 -62 86 -117 151 -147 50 -23 52 -23 556 -26 l506 -3 12 -52 c25 -114
114 -247 215 -324 228 -173 524 -173 752 0 101 77 190 210 215 324 l12 51 241
4 c237 3 242 3 297 29 69 33 127 89 160 155 l24 49 3 636 2 636 -157 -5 c-229
-6 -398 28 -588 118 -177 85 -356 231 -475 391 -242 324 -312 763 -184 1147
19 57 34 106 34 108 0 2 -355 4 -788 4 l-789 0 -61 -31z m1842 -2762 c116 -53
189 -137 227 -258 23 -74 24 -135 4 -214 -32 -123 -106 -212 -225 -269 -60
-29 -73 -31 -170 -31 -97 0 -110 2 -172 32 -258 122 -318 454 -118 653 86 87
175 121 305 117 73 -2 101 -8 149 -30z"/>
<path d="M1003 3089 c-87 -17 -184 -72 -277 -159 -80 -74 -548 -705 -596 -803
-81 -168 -81 -170 -78 -798 l3 -554 23 -47 c32 -64 96 -126 162 -157 48 -22
73 -26 194 -31 l139 -5 14 -54 c49 -193 221 -365 428 -427 94 -28 248 -24 351
9 85 28 175 81 243 142 57 51 129 163 157 243 l24 67 0 1293 0 1292 -372 -1
c-205 -1 -392 -5 -415 -10z m357 -523 c49 -26 79 -55 101 -98 17 -34 19 -61
19 -288 0 -276 -3 -292 -67 -352 -61 -59 -54 -58 -634 -58 l-531 0 7 66 c16
150 61 233 286 529 l171 226 307 -3 c276 -3 309 -5 341 -22z m-9 -1553 c121
-60 206 -173 229 -305 30 -169 -67 -351 -228 -430 -127 -63 -305 -46 -417 40
-67 51 -121 124 -146 201 -30 89 -24 212 14 291 49 104 135 182 240 221 41 15
73 19 148 16 84 -2 104 -6 160 -34z"/>
</g>
</svg>
