<?xml version="1.0" standalone="no"?>
<!DOCTYPE svg PUBLIC "-//W3C//DTD SVG 20010904//EN"
 "http://www.w3.org/TR/2001/REC-SVG-20010904/DTD/svg10.dtd">
<svg version="1.0" xmlns="http://www.w3.org/2000/svg"
 width="593.000000pt" height="390.000000pt" viewBox="0 0 593.000000 390.000000"
 preserveAspectRatio="xMidYMid meet">

<g transform="translate(0.000000,390.000000) scale(0.100000,-0.100000)"
fill="#000000" stroke="none">
<path d="M139 3831 l-29 -29 0 -1612 c0 -1773 -4 -1656 61 -1679 50 -17 481
-15 524 3 63 26 75 97 26 147 l-29 29 -196 0 -196 0 0 1490 0 1490 1500 0
1500 0 0 -1490 0 -1489 -516 -3 -516 -3 -24 -28 c-44 -52 -22 -128 44 -147 25
-8 269 -10 790 -8 l754 3 29 33 c32 36 36 60 15 101 -23 44 -52 51 -226 51
l-160 0 0 1145 0 1145 776 -2 776 -3 304 -630 304 -630 0 -512 0 -512 -236 -3
-236 -3 -29 -33 c-32 -36 -36 -60 -15 -101 25 -48 45 -51 347 -51 306 0 325 3
348 57 8 21 11 187 9 618 l-3 590 -332 685 c-269 555 -337 688 -360 702 -26
17 -85 18 -840 18 l-813 0 0 316 0 316 -29 29 -29 29 -1632 0 -1632 0 -29 -29z"/>
<path d="M2768 3067 c-15 -6 -232 -223 -483 -482 -251 -258 -483 -497 -516
-530 l-59 -60 -328 328 c-306 305 -329 327 -362 327 -65 0 -105 -53 -89 -115
6 -21 121 -142 377 -397 348 -348 370 -368 404 -368 40 0 45 5 739 720 457
472 439 452 439 494 0 65 -65 109 -122 83z"/>
<path d="M3949 2731 l-29 -29 0 -502 0 -502 29 -29 29 -29 555 0 555 0 31 26
c23 19 31 34 31 59 0 47 -403 983 -436 1013 -25 22 -26 22 -380 22 l-356 0
-29 -29z m812 -535 c87 -203 159 -371 159 -373 0 -2 -182 -3 -405 -3 l-405 0
0 375 0 375 246 -2 245 -3 160 -369z"/>
<path d="M1341 1155 c-144 -46 -270 -156 -335 -290 -45 -93 -60 -162 -60 -265
2 -156 55 -281 169 -395 117 -117 241 -169 405 -169 164 0 288 52 405 169 115
115 169 248 167 415 -1 137 -55 273 -152 383 -48 55 -156 122 -242 151 -106
36 -249 36 -357 1z m343 -193 c83 -39 149 -105 189 -190 29 -61 32 -76 32
-162 0 -85 -3 -102 -31 -160 -105 -222 -380 -298 -577 -161 -272 190 -192 619
130 701 71 18 186 5 257 -28z"/>
<path d="M4386 1165 c-245 -67 -426 -303 -426 -555 0 -344 322 -624 654 -570
200 32 354 144 436 315 45 94 60 159 60 258 0 154 -55 284 -169 397 -83 82
-162 130 -256 155 -72 18 -231 18 -299 0z m320 -205 c202 -99 281 -337 176
-533 -36 -68 -129 -150 -199 -178 -88 -35 -227 -33 -306 3 -75 35 -160 121
-194 195 -70 152 -25 355 101 457 89 72 164 97 280 92 62 -4 91 -10 142 -36z"/>
</g>
</svg>
