<?xml version="1.0" encoding="iso-8859-1"?>
<!-- Generator: Adobe Illustrator 19.0.0, SVG Export Plug-In . SVG Version: 6.00 Build 0)  -->
<svg version="1.1" id="Capa_1" xmlns="http://www.w3.org/2000/svg" xmlns:xlink="http://www.w3.org/1999/xlink" x="0px" y="0px"
	 viewBox="0 0 512 512" style="enable-background:new 0 0 512 512;" xml:space="preserve">
<g>
	<g>
		<path d="M508.79,370.128l-23.681-94.405c-13.525-53.915-47.901-98.067-93.244-124.77c-4.116-30.643-17.575-62.196-37.74-87.401
			c-27.074-33.843-61.923-52.48-98.127-52.48s-71.053,18.638-98.127,52.48c-20.165,25.205-33.624,56.759-37.74,87.402
			c-45.342,26.702-79.717,70.853-93.242,124.77L3.209,370.128c-7.942,31.658-0.982,64.573,19.094,90.307
			c20.075,25.734,50.308,40.493,82.946,40.493H406.75c32.639,0,62.871-14.759,82.946-40.493
			C509.773,434.701,516.733,401.785,508.79,370.128z M365.558,170.813c8.881,4.386,17.341,9.531,25.301,15.352v76.639h-25.301
			V170.813z M256,41.072c47.695,0,87.923,45.634,101.917,93.945c-21.483-7.734-44.557-11.916-68.444-11.916h-66.944
			c-23.889,0-46.962,4.182-68.444,11.916C168.077,86.705,208.305,41.072,256,41.072z M121.142,186.165
			c7.959-5.821,16.419-10.966,25.301-15.352v91.991h-25.301V186.165z M466.045,441.982c-14.351,18.397-35.964,28.947-59.294,28.947
			H105.249c-23.331,0-44.943-10.55-59.293-28.946c-14.352-18.396-19.326-41.925-13.649-64.555l23.681-94.404
			c6.526-26.015,18.758-49.358,35.155-68.841v63.623c0,8.284,6.716,15,15,15h55.3c8.284,0,15-6.716,15-15V159.361
			c14.729-4.089,30.196-6.261,46.086-6.261h66.944c15.89,0,31.357,2.172,46.086,6.261v118.443c0,8.284,6.716,15,15,15h55.3
			c8.284,0,15-6.716,15-15v-63.623c16.397,19.485,28.629,42.827,35.155,68.841l23.681,94.405
			C485.37,400.057,480.395,423.587,466.045,441.982z"/>
	</g>
</g>
<g>
</g>
<g>
</g>
<g>
</g>
<g>
</g>
<g>
</g>
<g>
</g>
<g>
</g>
<g>
</g>
<g>
</g>
<g>
</g>
<g>
</g>
<g>
</g>
<g>
</g>
<g>
</g>
<g>
</g>
</svg>
