<?xml version="1.0" standalone="no"?>
<!DOCTYPE svg PUBLIC "-//W3C//DTD SVG 20010904//EN"
 "http://www.w3.org/TR/2001/REC-SVG-20010904/DTD/svg10.dtd">
<svg version="1.0" xmlns="http://www.w3.org/2000/svg"
 width="512.000000pt" height="512.000000pt" viewBox="0 0 512.000000 512.000000"
 preserveAspectRatio="xMidYMid meet">

<g transform="translate(0.000000,512.000000) scale(0.100000,-0.100000)"
fill="#000000" stroke="none">
<path d="M2365 5114 c-193 -20 -386 -71 -540 -143 -174 -82 -269 -151 -305
-222 -25 -47 -58 -225 -72 -382 l-12 -128 -65 -36 c-36 -19 -100 -54 -141 -77
-106 -58 -225 -178 -273 -277 -20 -40 -44 -101 -52 -134 -20 -82 -268 -2832
-262 -2915 3 -43 15 -92 37 -145 32 -77 33 -84 31 -200 -2 -106 0 -122 16
-136 10 -9 92 -33 182 -53 216 -47 204 -53 237 124 14 76 25 106 55 150 20 30
45 78 54 105 11 31 41 262 81 610 l63 560 -2 -585 -2 -585 24 -47 c13 -26 37
-60 53 -75 l28 -27 0 -176 c0 -156 2 -179 18 -192 21 -19 235 -61 442 -88 407
-52 793 -52 1200 0 207 27 421 69 443 88 15 13 17 36 17 192 l0 176 28 27 c16
15 40 49 53 75 l24 47 -2 585 -2 585 63 -560 c40 -351 70 -579 81 -610 9 -27
34 -75 54 -105 30 -44 41 -74 55 -150 24 -127 24 -128 50 -145 20 -14 38 -11
187 21 90 20 172 44 182 53 16 14 18 30 16 136 -2 116 -1 123 31 200 22 53 34
102 37 145 6 83 -242 2833 -262 2915 -8 33 -32 94 -52 134 -48 99 -167 219
-273 277 -41 23 -105 58 -142 78 l-68 37 0 47 c-1 117 -51 404 -80 462 -67
129 -395 291 -705 346 -87 15 -439 27 -530 18z m413 -115 c241 -26 451 -98
634 -218 84 -54 101 -76 101 -131 0 -36 -29 -110 -42 -110 -4 0 -42 19 -83 43
-136 77 -337 145 -528 179 -46 8 -161 13 -300 13 -139 0 -254 -5 -300 -13
-191 -34 -392 -102 -528 -179 -41 -24 -79 -43 -83 -43 -13 0 -42 74 -42 110 0
52 25 83 111 138 127 80 292 149 442 183 160 36 433 49 618 28z m97 -352 c179
-34 349 -94 484 -174 l43 -25 -48 -50 c-78 -80 -197 -173 -364 -283 -153 -102
-412 -255 -430 -255 -16 0 -269 148 -405 237 -165 109 -304 215 -378 291 l-58
59 23 15 c42 27 181 94 243 116 110 39 210 61 390 86 67 9 424 -3 500 -17z
m-1246 -264 c71 -86 226 -214 410 -339 85 -57 152 -104 150 -104 -27 0 -322
116 -422 166 -96 48 -206 120 -213 139 -9 21 6 207 16 203 4 -2 30 -31 59 -65z
m1936 -28 c4 -52 5 -101 1 -110 -7 -19 -117 -91 -213 -139 -119 -59 -389 -163
-399 -153 -2 2 33 28 78 58 202 131 389 284 465 379 27 33 51 60 55 60 3 0 9
-43 13 -95z m-1998 -259 c132 -85 342 -180 536 -242 l87 -28 0 -775 c0 -707 1
-776 17 -793 21 -24 48 -23 73 2 20 20 20 33 20 775 0 682 2 755 16 755 9 0
52 -10 97 -21 45 -12 111 -22 147 -22 36 0 102 10 147 22 45 11 88 21 97 21
14 0 16 -73 16 -755 0 -742 0 -755 20 -775 24 -24 47 -25 72 -3 17 15 18 53
18 792 l0 777 88 28 c193 62 403 157 535 242 37 24 71 44 74 44 4 0 66 -32
138 -70 147 -79 216 -134 270 -216 81 -122 72 -50 210 -1583 69 -766 125
-1417 125 -1447 0 -52 -27 -142 -53 -178 -9 -13 -49 -25 -138 -42 -68 -13
-132 -24 -142 -24 -22 0 -53 50 -72 115 -7 28 -64 509 -125 1070 -77 705 -116
1027 -126 1043 -16 25 -55 29 -77 8 -22 -23 -30 -415 -26 -1341 l4 -810 -22
-35 c-32 -52 -81 -74 -238 -108 -289 -63 -496 -85 -795 -85 -299 0 -506 22
-795 85 -157 34 -206 56 -238 108 l-22 35 4 800 c4 922 -4 1329 -26 1351 -22
21 -61 17 -77 -8 -10 -16 -49 -338 -126 -1043 -61 -561 -118 -1042 -125 -1070
-19 -65 -50 -115 -72 -115 -10 0 -74 11 -142 24 -89 17 -129 29 -138 42 -26
36 -53 126 -53 178 0 29 56 680 125 1446 138 1535 129 1462 210 1584 54 81
115 131 267 214 73 39 136 72 140 72 4 0 38 -20 75 -44z m-615 -3604 c48 -10
89 -20 92 -23 3 -3 1 -30 -5 -61 l-11 -55 -102 22 -101 21 -3 57 c-4 67 -8 66
130 39z m3346 -39 l-3 -57 -101 -21 -102 -22 -11 55 c-6 31 -8 58 -5 61 7 8
160 38 197 40 28 1 28 1 25 -56z m-2555 -38 c286 -63 513 -87 817 -87 304 0
531 24 817 87 62 14 117 25 123 25 6 0 10 -42 10 -114 0 -101 -2 -115 -17
-120 -10 -3 -70 -14 -133 -25 -538 -94 -1062 -94 -1600 0 -63 11 -123 22 -132
25 -16 5 -18 19 -18 120 0 72 4 114 10 114 6 0 61 -11 123 -25z"/>
</g>
</svg>
