<?xml version="1.0" standalone="no"?>
<!DOCTYPE svg PUBLIC "-//W3C//DTD SVG 20010904//EN"
 "http://www.w3.org/TR/2001/REC-SVG-20010904/DTD/svg10.dtd">
<svg version="1.0" xmlns="http://www.w3.org/2000/svg"
 width="431.000000pt" height="579.000000pt" viewBox="0 0 431.000000 579.000000"
 preserveAspectRatio="xMidYMid meet">

<g transform="translate(0.000000,579.000000) scale(0.100000,-0.100000)"
fill="#000000" stroke="none">
<path d="M2050 5014 c-14 -3 -34 -9 -45 -13 -11 -5 -51 -21 -89 -37 -135 -54
-244 -194 -321 -409 -15 -44 -31 -84 -35 -90 -4 -5 -17 -39 -29 -75 -12 -36
-25 -70 -29 -77 -5 -8 -78 -12 -242 -15 -202 -3 -241 -6 -280 -22 -76 -32
-127 -81 -166 -159 -39 -76 -42 -94 -129 -712 -19 -137 -40 -270 -45 -295 -5
-25 -26 -155 -45 -290 -34 -232 -87 -576 -120 -775 -18 -108 -19 -259 -3 -306
17 -52 81 -140 126 -176 22 -18 64 -43 94 -55 52 -23 61 -23 418 -23 373 0
420 4 590 46 141 36 341 121 458 195 29 19 57 34 62 34 5 0 13 6 17 14 4 7 28
26 52 41 52 32 218 195 282 275 61 77 122 167 149 219 12 25 29 51 36 59 8 7
14 18 14 23 0 5 13 37 30 71 82 175 103 386 55 552 -14 48 -36 104 -50 126
-14 22 -25 43 -25 47 0 5 -11 21 -25 37 -14 16 -25 32 -25 37 0 4 -30 38 -67
76 -61 62 -159 133 -182 133 -5 0 -11 4 -13 9 -5 12 -116 48 -193 62 -109 19
-304 7 -392 -24 -187 -66 -343 -204 -425 -377 -22 -47 -44 -92 -48 -101 -44
-88 -44 -345 1 -444 5 -11 20 -51 34 -89 34 -92 148 -310 230 -441 24 -38 58
-93 74 -121 51 -85 125 -104 179 -47 12 13 22 37 22 52 0 32 -23 92 -43 113
-7 7 -28 40 -47 73 -18 33 -37 62 -40 65 -4 3 -19 26 -33 52 -14 25 -36 63
-49 85 -13 21 -33 58 -43 83 -11 25 -22 47 -25 50 -8 8 -47 100 -62 145 -6 22
-17 46 -22 53 -5 8 -12 65 -14 127 -4 105 -2 119 23 190 30 83 102 189 163
240 66 56 169 112 231 125 86 18 271 9 337 -17 111 -44 243 -156 295 -253 9
-16 21 -35 26 -42 5 -7 18 -40 28 -72 32 -105 20 -256 -30 -371 -7 -16 -25
-59 -40 -95 -14 -36 -32 -72 -39 -80 -7 -8 -25 -37 -41 -65 -16 -27 -31 -52
-35 -55 -3 -3 -20 -25 -38 -50 -62 -88 -254 -266 -362 -336 -25 -16 -47 -31
-50 -35 -14 -16 -216 -110 -266 -124 -33 -9 -66 -20 -76 -25 -9 -5 -67 -19
-130 -32 -103 -20 -141 -22 -448 -23 -375 0 -377 0 -431 68 -28 34 -34 51 -37
102 -2 34 1 93 7 131 7 38 19 116 27 174 8 58 27 179 41 270 13 91 40 264 58
385 36 236 108 705 126 820 6 39 21 143 34 232 35 246 43 253 299 253 140 0
168 -2 172 -15 4 -8 1 -21 -5 -28 -18 -23 -61 -160 -61 -198 0 -63 61 -104
120 -79 37 15 52 38 86 136 15 43 30 84 34 89 4 6 22 53 40 105 18 52 36 100
40 105 4 6 22 53 40 105 18 52 36 100 40 105 4 6 19 46 35 90 15 44 36 92 46
107 11 14 19 30 19 36 0 20 113 114 165 138 57 24 170 34 191 16 5 -5 29 -16
54 -25 84 -31 163 -125 200 -237 12 -36 25 -69 29 -75 4 -5 18 -39 31 -75 13
-36 29 -78 36 -95 15 -34 69 -176 120 -315 19 -52 41 -109 49 -127 8 -17 15
-36 15 -42 0 -15 60 -51 84 -51 11 0 35 10 53 23 51 34 51 64 3 186 -26 66
-38 107 -32 113 6 6 80 9 184 6 188 -4 198 -6 237 -64 26 -37 34 -84 115 -649
49 -342 86 -592 96 -655 6 -36 26 -164 45 -285 18 -121 45 -294 60 -385 40
-249 28 -315 -65 -373 -34 -22 -44 -22 -497 -27 l-463 -5 -26 -26 c-34 -34
-36 -101 -4 -133 20 -21 27 -21 503 -21 479 0 482 0 535 23 144 61 232 192
232 346 0 57 -30 290 -66 506 -8 52 -26 169 -39 260 -83 583 -97 679 -105 710
-6 19 -21 123 -35 230 -14 107 -30 211 -35 230 -5 19 -14 73 -20 120 -22 166
-48 233 -119 301 -77 73 -152 89 -416 89 -170 0 -205 2 -205 14 0 8 -4 16 -8
18 -5 2 -23 46 -41 98 -19 52 -37 100 -41 105 -3 6 -17 39 -30 75 -49 140
-132 252 -239 324 -29 20 -57 36 -63 36 -5 0 -28 9 -51 21 -42 20 -180 34
-237 23z"/>
<path d="M1796 4268 c-29 -64 -55 -141 -50 -150 3 -4 176 -8 385 -8 297 0 379
3 378 13 0 6 -12 48 -27 92 l-27 80 -322 3 -322 2 -15 -32z"/>
<path d="M2045 3161 c-112 -30 -191 -100 -235 -210 -31 -76 -41 -181 -21 -219
5 -9 21 -42 36 -72 80 -164 285 -230 461 -149 52 25 128 95 139 129 3 11 10
20 14 20 10 0 27 59 36 121 8 57 -8 148 -37 206 -30 60 -115 137 -175 158 -55
19 -174 28 -218 16z m148 -195 c40 -16 87 -76 94 -120 6 -35 -12 -106 -27
-106 -5 0 -12 -9 -15 -20 -15 -46 -133 -67 -195 -35 -37 19 -80 92 -80 134 0
35 29 100 56 122 46 38 112 49 167 25z"/>
</g>
</svg>
