<?xml version="1.0" standalone="no"?>
<!DOCTYPE svg PUBLIC "-//W3C//DTD SVG 20010904//EN"
 "http://www.w3.org/TR/2001/REC-SVG-20010904/DTD/svg10.dtd">
<svg version="1.0" xmlns="http://www.w3.org/2000/svg"
 width="493.000000pt" height="75.000000pt" viewBox="0 0 493.000000 75.000000"
 preserveAspectRatio="xMidYMid meet">

<g transform="translate(0.000000,75.000000) scale(0.100000,-0.100000)"
fill="#000000" stroke="none">
<path d="M2735 601 c-50 -23 -89 -64 -111 -116 -19 -46 -22 -165 -4 -210 30
-77 105 -135 175 -135 33 0 35 2 35 35 0 25 -4 35 -16 35 -9 0 -31 7 -50 16
-46 22 -68 80 -62 173 4 85 26 120 87 140 39 12 42 16 39 45 -4 39 -35 45 -93
17z"/>
<path d="M222 378 l3 -233 35 0 35 0 3 233 2 232 -40 0 -40 0 2 -232z"/>
<path d="M505 598 c-3 -7 -6 -76 -7 -153 l-3 -140 -30 48 c-16 27 -48 76 -70
110 l-40 62 -3 -71 c-3 -78 -10 -61 106 -249 37 -59 38 -60 82 -60 l45 0 0
230 0 230 -38 3 c-24 2 -39 -1 -42 -10z"/>
<path d="M1140 375 l0 -236 43 3 42 3 0 230 0 230 -42 3 -43 3 0 -236z"/>
<path d="M1740 576 l0 -35 68 -3 67 -3 3 -198 2 -198 43 3 42 3 5 195 5 195
68 3 68 3 -3 32 -3 32 -182 3 -183 2 0 -34z"/>
<path d="M2890 571 c0 -38 3 -41 50 -65 l50 -25 0 52 c0 63 -11 77 -62 77 -38
0 -38 0 -38 -39z"/>
<path d="M3550 375 l0 -236 43 3 42 3 3 103 3 102 94 0 95 0 0 -106 0 -105 43
3 42 3 0 230 0 230 -42 3 -43 3 0 -90 0 -91 -95 0 -94 0 -3 88 -3 87 -42 3
-43 3 0 -236z"/>
<path d="M4360 596 c0 -7 9 -16 20 -19 19 -5 20 -14 20 -192 0 -178 -1 -187
-20 -192 -11 -3 -20 -12 -20 -19 0 -18 159 -20 224 -3 156 39 219 261 107 379
-46 48 -89 60 -223 60 -85 0 -108 -3 -108 -14z m219 -31 c16 -8 36 -31 46 -52
23 -47 31 -155 16 -211 -22 -79 -98 -134 -135 -97 -14 14 -16 42 -16 189 0 95
3 176 7 179 11 12 53 8 82 -8z"/>
<path d="M2938 257 c-44 -27 -48 -33 -48 -68 0 -39 0 -39 39 -39 51 0 63 17
59 82 l-3 54 -47 -29z"/>
</g>
</svg>
