<?xml version="1.0" standalone="no"?>
<!DOCTYPE svg PUBLIC "-//W3C//DTD SVG 20010904//EN"
 "http://www.w3.org/TR/2001/REC-SVG-20010904/DTD/svg10.dtd">
<svg version="1.0" xmlns="http://www.w3.org/2000/svg"
 width="499.000000pt" height="500.000000pt" viewBox="0 0 499.000000 500.000000"
 preserveAspectRatio="xMidYMid meet">

<g transform="translate(0.000000,500.000000) scale(0.100000,-0.100000)"
fill="#000000" stroke="none">
<path d="M2517 4006 c-82 -29 -106 -44 -158 -98 -39 -40 -107 -167 -134 -251
-24 -75 -41 -117 -51 -127 -6 -6 -82 -13 -170 -15 -87 -3 -175 -11 -194 -17
-89 -28 -145 -114 -161 -243 -5 -38 -17 -122 -28 -185 -11 -63 -24 -151 -30
-195 -6 -44 -16 -111 -22 -150 -37 -241 -62 -405 -79 -510 -10 -66 -22 -147
-25 -180 -4 -33 -13 -89 -21 -125 -22 -102 -18 -176 12 -240 31 -67 56 -95
109 -123 60 -31 52 -31 325 -35 181 -2 271 0 310 9 30 7 57 13 60 14 115 24
152 37 265 92 159 78 229 127 344 243 156 158 291 434 291 597 0 87 -56 239
-115 311 -27 33 -120 122 -128 122 -5 0 -22 9 -37 20 -57 41 -157 65 -265 64
-138 -1 -196 -21 -333 -116 -31 -22 -142 -158 -142 -175 0 -4 -7 -21 -16 -38
-9 -16 -23 -66 -30 -110 -15 -93 -5 -197 29 -280 27 -69 108 -230 146 -290 17
-27 36 -61 43 -75 7 -14 15 -27 18 -30 3 -3 20 -24 39 -47 35 -47 61 -54 99
-27 32 22 29 72 -7 126 -102 154 -166 272 -216 403 -24 61 -27 79 -23 155 4
71 10 95 36 148 18 34 36 62 41 62 5 0 11 6 13 14 6 26 101 95 167 122 226 90
495 -62 541 -306 19 -98 -31 -255 -128 -405 -43 -66 -188 -221 -242 -257 -14
-10 -43 -30 -65 -45 -85 -60 -211 -112 -348 -145 -81 -19 -122 -22 -337 -22
-272 -1 -285 2 -314 68 -24 55 -26 65 -15 119 5 28 14 88 19 132 5 44 18 134
29 200 11 66 29 188 41 270 12 83 32 215 45 295 13 80 33 213 45 295 47 326
46 325 102 344 17 6 82 11 145 11 l115 0 -7 -32 c-4 -18 -16 -52 -26 -76 -30
-68 -25 -91 26 -119 26 -15 72 9 87 45 13 32 52 136 78 207 23 63 62 164 90
235 12 30 27 69 34 85 19 52 86 125 135 147 91 42 196 16 267 -66 25 -28 51
-77 72 -132 38 -99 75 -195 103 -266 11 -26 19 -51 19 -57 0 -6 11 -35 25 -65
14 -30 25 -61 25 -69 0 -8 9 -26 21 -41 28 -36 80 -36 104 0 15 23 15 32 4 73
-6 25 -20 62 -30 82 -10 20 -15 39 -12 43 4 3 57 6 120 6 126 0 177 -14 192
-52 9 -25 36 -191 70 -433 12 -82 30 -204 42 -270 11 -66 24 -154 29 -195 10
-90 32 -234 66 -430 13 -80 24 -176 24 -213 0 -65 -2 -71 -32 -99 -18 -17 -43
-34 -56 -39 -13 -5 -167 -9 -342 -9 l-320 0 -16 -26 c-14 -20 -15 -33 -8 -62
l9 -37 348 -3 349 -2 48 24 c64 32 102 67 128 119 41 82 40 116 -8 437 -54
357 -72 473 -86 560 -9 52 -19 126 -24 165 -4 38 -17 124 -28 190 -11 66 -26
159 -32 207 -17 126 -30 161 -82 221 -57 67 -96 77 -283 77 -73 0 -141 3 -150
6 -16 7 -55 73 -55 95 0 12 -39 108 -71 174 -10 22 -19 44 -19 48 0 8 -55 71
-94 108 -10 10 -47 32 -82 49 -88 44 -158 49 -247 16z"/>
<path d="M2397 3508 c-14 -11 -47 -94 -47 -120 0 -5 122 -8 270 -8 222 0 270
2 270 14 0 7 -9 36 -21 63 l-20 50 -127 6 c-198 11 -306 9 -325 -5z"/>
<path d="M2580 2710 c-116 -22 -210 -135 -210 -253 0 -90 85 -204 169 -227 93
-26 184 -6 245 53 51 49 62 68 76 132 37 165 -116 326 -280 295z m101 -155
c56 -37 63 -120 16 -172 -17 -19 -31 -23 -78 -23 -52 0 -60 3 -83 31 -19 22
-26 42 -26 72 0 47 20 77 65 100 42 22 65 21 106 -8z"/>
<path d="M2750 1308 c-60 -31 -82 -72 -87 -162 -3 -59 0 -79 19 -116 36 -71
138 -118 153 -70 8 27 0 37 -35 45 -59 13 -92 125 -61 206 9 26 48 59 84 72
24 9 18 41 -8 45 -11 1 -40 -8 -65 -20z"/>
<path d="M700 1134 l0 -185 33 3 32 3 3 183 2 182 -35 0 -35 0 0 -186z"/>
<path d="M931 1308 c1 -7 1 -62 0 -122 l-1 -109 -20 26 c-12 14 -26 36 -33 49
-34 59 -53 88 -59 88 -19 0 -7 -93 18 -137 54 -97 94 -153 111 -154 21 -2 47
2 51 6 3 2 4 297 2 358 0 4 -16 7 -35 7 -23 0 -35 -5 -34 -12z"/>
<path d="M1460 1136 c0 -158 2 -185 16 -190 8 -3 23 -2 33 3 16 9 17 26 14
179 -2 93 -3 174 -3 181 0 6 -13 11 -30 11 l-30 0 0 -184z"/>
<path d="M1950 1296 c0 -23 4 -25 53 -28 l52 -3 3 -157 3 -158 34 0 34 0 3
158 3 157 55 5 c47 4 55 8 55 25 0 19 -8 20 -147 23 l-148 3 0 -25z"/>
<path d="M2890 1290 c0 -25 6 -33 33 -45 32 -13 32 -13 37 18 9 47 2 57 -36
57 -31 0 -34 -2 -34 -30z"/>
<path d="M3430 1134 l0 -185 33 3 32 3 2 65 c1 36 2 71 2 78 1 8 24 12 81 12
l80 0 0 -79 c0 -84 7 -95 48 -80 22 8 22 9 20 186 l-3 178 -32 3 -33 3 0 -70
0 -71 -80 0 -80 0 0 70 0 70 -35 0 -35 0 0 -186z"/>
<path d="M4103 1306 c15 -12 17 -32 17 -170 0 -140 -2 -156 -17 -156 -13 0
-14 -3 -6 -11 11 -11 143 -8 195 3 38 9 87 67 104 124 15 53 15 61 -1 115 -14
44 -26 64 -52 82 -31 22 -45 25 -146 26 -96 1 -110 -1 -94 -13z m195 -34 c34
-46 40 -173 10 -234 -15 -32 -68 -64 -92 -55 -14 6 -16 27 -16 163 l0 157 43
-7 c23 -4 48 -14 55 -24z"/>
<path d="M2918 1029 c-34 -25 -40 -79 -9 -79 41 0 51 11 51 56 0 50 -4 52 -42
23z"/>
</g>
</svg>
