<?xml version="1.0" standalone="no"?>
<!DOCTYPE svg PUBLIC "-//W3C//DTD SVG 20010904//EN"
 "http://www.w3.org/TR/2001/REC-SVG-20010904/DTD/svg10.dtd">
<svg version="1.0" xmlns="http://www.w3.org/2000/svg"
 width="430.000000pt" height="580.000000pt" viewBox="0 0 430.000000 580.000000"
 preserveAspectRatio="xMidYMid meet">

<g transform="translate(0.000000,580.000000) scale(0.100000,-0.100000)"
fill="#000000" stroke="none">
<path d="M477 3334 c-9 -9 -9 -306 -1 -328 4 -10 18 -16 35 -16 l29 0 -2 173
-3 172 -25 3 c-14 2 -29 0 -33 -4z"/>
<path d="M690 3231 c0 -61 -4 -111 -9 -111 -5 0 -27 31 -50 70 -56 93 -65 97
-59 24 4 -50 12 -71 58 -141 49 -77 56 -83 87 -83 l33 0 -2 173 -3 172 -27 3
-28 3 0 -110z"/>
<path d="M1167 3333 c-4 -3 -7 -82 -7 -175 l0 -168 30 0 29 0 3 163 c2 89 1
168 -1 175 -3 13 -43 17 -54 5z"/>
<path d="M1610 3310 c0 -29 1 -30 50 -30 l50 0 0 -145 0 -145 35 0 34 0 3 143
3 142 48 3 c45 3 47 5 47 33 l0 29 -135 0 -135 0 0 -30z"/>
<path d="M2329 3317 c-53 -35 -71 -79 -67 -167 4 -101 38 -144 131 -166 25 -6
27 -4 27 23 0 25 -5 32 -32 39 -42 12 -63 53 -62 120 0 60 23 102 65 117 41
16 41 57 0 57 -15 0 -43 -10 -62 -23z"/>
<path d="M2467 3334 c-4 -4 -7 -18 -7 -30 0 -17 11 -29 40 -44 l40 -20 0 45
c0 38 -3 45 -19 45 -11 0 -26 2 -33 5 -8 3 -17 2 -21 -1z"/>
<path d="M2957 3333 c-4 -3 -7 -82 -7 -175 l0 -168 35 0 34 0 3 73 3 72 73 3
72 3 0 -76 0 -75 30 0 29 0 3 158 c2 86 1 165 -1 175 -2 11 -13 17 -32 17 -28
0 -28 -1 -31 -67 l-3 -68 -70 0 -70 0 -3 68 c-3 66 -3 67 -31 67 -15 0 -31 -3
-34 -7z"/>
<path d="M3573 3316 c15 -11 17 -31 17 -149 0 -119 -2 -137 -17 -146 -24 -14
146 -15 182 -1 105 40 128 223 36 286 -32 21 -46 24 -136 24 -85 -1 -97 -3
-82 -14z m171 -29 c52 -52 42 -207 -16 -249 -53 -37 -63 -20 -66 123 -1 67 0
129 2 136 8 21 55 15 80 -10z"/>
<path d="M2493 3068 c-25 -15 -33 -27 -33 -49 0 -30 11 -35 58 -23 18 5 22 13
22 50 0 49 -2 50 -47 22z"/>
</g>
</svg>
