<?xml version="1.0" standalone="no"?>
<!DOCTYPE svg PUBLIC "-//W3C//DTD SVG 20010904//EN"
 "http://www.w3.org/TR/2001/REC-SVG-20010904/DTD/svg10.dtd">
<svg version="1.0" xmlns="http://www.w3.org/2000/svg"
 width="512.000000pt" height="512.000000pt" viewBox="0 0 512.000000 512.000000"
 preserveAspectRatio="xMidYMid meet">

<g transform="translate(0.000000,512.000000) scale(0.100000,-0.100000)"
fill="#000000" stroke="none">
<path d="M2245 5054 c-238 -36 -403 -115 -563 -268 -133 -127 -220 -277 -264
-453 -31 -122 -30 -332 1 -447 50 -189 134 -329 276 -464 398 -379 1024 -342
1376 82 76 91 162 263 189 376 70 298 6 591 -180 824 -171 214 -424 340 -700
351 -58 2 -118 1 -135 -1z"/>
<path d="M1300 2995 c-163 -46 -284 -185 -340 -390 -21 -75 -23 -113 -32 -575
-9 -499 -5 -796 12 -939 30 -236 101 -356 253 -426 148 -68 307 -85 807 -85
l379 0 25 83 c155 504 193 617 226 654 18 21 301 338 628 706 l594 667 -28 47
c-48 83 -111 141 -199 183 -84 41 -245 80 -328 80 -40 0 -49 -5 -89 -48 -57
-61 -87 -107 -243 -377 -139 -241 -292 -492 -305 -500 -10 -6 -110 303 -110
339 0 37 26 85 108 198 l71 97 -50 36 c-27 19 -99 81 -160 136 l-109 101 -148
-143 c-81 -79 -148 -146 -150 -149 -1 -3 17 -31 40 -61 24 -30 63 -85 87 -122
l44 -68 -26 -79 c-30 -90 -89 -215 -121 -255 l-21 -27 -70 152 c-189 414 -400
728 -510 760 -69 19 -175 21 -235 5z"/>
<path d="M4122 2690 l-62 -68 72 -64 c40 -36 179 -156 308 -268 129 -112 264
-229 299 -259 l64 -56 58 65 c32 36 59 68 59 72 0 8 -715 641 -728 645 -4 1
-35 -29 -70 -67z"/>
<path d="M3933 2472 c-51 -56 -993 -1139 -1100 -1263 -12 -15 25 -51 348 -335
199 -176 365 -320 368 -322 7 -3 1182 1332 1183 1343 0 4 -124 117 -276 251
l-277 244 -506 -577 c-278 -318 -509 -579 -512 -581 -4 -1 -26 12 -49 29 l-42
31 49 56 c27 32 259 295 515 587 l465 530 -32 33 c-57 60 -58 60 -134 -26z"/>
<path d="M2746 1018 c-8 -29 -40 -132 -71 -228 l-55 -175 107 -103 c60 -57
142 -134 183 -171 l75 -68 223 101 c122 55 223 104 225 107 1 4 -404 361 -655
576 -15 13 -18 9 -32 -39z"/>
<path d="M2501 249 c-28 -106 -49 -194 -46 -197 2 -3 37 9 77 25 40 17 124 52
186 78 62 26 112 51 110 55 -3 8 -264 230 -271 230 -2 0 -27 -86 -56 -191z"/>
</g>
</svg>
