<svg id="Layer_2" height="512" viewBox="0 0 128 128" width="512" xmlns="http://www.w3.org/2000/svg" data-name="Layer 2"><path d="m127.981 104.325-6.495-43.5-5.069-33.955v-12.2a1.75 1.75 0 0 0 -1.75-1.75h-101.334a1.75 1.75 0 0 0 -1.75 1.75v12.2l-5.069 33.954-6.495 43.5a1.751 1.751 0 0 0 1.449 1.986l53.5 8.75a1.749 1.749 0 0 0 1.984-1.32l7.048-29.413 7.048 29.414a1.75 1.75 0 0 0 1.7 1.342 1.817 1.817 0 0 0 .283-.022l53.5-8.75a1.751 1.751 0 0 0 1.45-1.986zm-62.231-27.714v-9.66a12.927 12.927 0 0 0 11.167-12.784v-25.417h20.109l2.363 13.722a24.262 24.262 0 0 0 14.936 18.353l3.848 1.516 4.737 31.727-50.975 8.355zm-9.685 25.812-50.975-8.355 4.737-31.727 3.848-1.516a24.262 24.262 0 0 0 14.936-18.353l2.363-13.722h31.276v47.861zm-41.223-73.673h12.581l-2.261 13.128a20.742 20.742 0 0 1 -12.769 15.69l-1.97.776zm58.575 0v25.417a9.432 9.432 0 0 1 -7.667 9.253v-34.67zm44.16 29.594-1.97-.776a20.742 20.742 0 0 1 -12.769-15.69l-2.261-13.128h12.581zm-4.66-33.094h-25.458v-8.833h25.458zm-28.958-8.833v8.833h-39.918v-8.833zm-68.876 0h25.458v8.833h-25.458zm38.844 94.927-50.191-8.209.837-5.605 50.674 8.306zm20.146 0-1.32-5.508 50.674-8.306.837 5.605z"/></svg>