<?xml version="1.0" encoding="iso-8859-1"?>
<!-- Generator: Adobe Illustrator 19.0.0, SVG Export Plug-In . SVG Version: 6.00 Build 0)  -->
<svg version="1.1" id="Capa_1" xmlns="http://www.w3.org/2000/svg" xmlns:xlink="http://www.w3.org/1999/xlink" x="0px" y="0px"
	 viewBox="0 0 350.56 350.56" style="enable-background:new 0 0 350.56 350.56;" xml:space="preserve">
<g>
	<g>
		<path d="M345.6,310.88L266.64,45.36V8c0-4.418-3.582-8-8-8H91.92c-4.418,0-8,3.582-8,8v37.36L4.96,310.88
			c-1.049,3.549,0.473,7.354,3.68,9.2c2.16,1.28,53.76,30.48,156.72,30.48h19.84c102.96,0,154.64-29.28,156.72-30.48
			C345.127,318.233,346.649,314.429,345.6,310.88z M99.92,16h150.72v22.48H99.92V16z M185.2,334.56h-9.92
			c-85.52,1.52-136.8-18.08-152.96-25.52l75.6-254.56h27.6l-20.16,85.12c-1.002,4.283,1.643,8.572,5.92,9.6h1.84
			c3.789,0.101,7.13-2.471,8-6.16l20.8-88.56h66.64l21.12,88.8c0.87,3.689,4.211,6.261,8,6.16h1.84
			c4.277-1.028,6.922-5.317,5.92-9.6l-20.4-85.36h27.6l75.68,254.48C312.8,316.16,264.88,334.56,185.2,334.56z"/>
	</g>
</g>
<g>
</g>
<g>
</g>
<g>
</g>
<g>
</g>
<g>
</g>
<g>
</g>
<g>
</g>
<g>
</g>
<g>
</g>
<g>
</g>
<g>
</g>
<g>
</g>
<g>
</g>
<g>
</g>
<g>
</g>
</svg>
