<?xml version="1.0" encoding="iso-8859-1"?>
<!-- Generator: Adobe Illustrator 19.0.0, SVG Export Plug-In . SVG Version: 6.00 Build 0)  -->
<svg version="1.1" id="Capa_1" xmlns="http://www.w3.org/2000/svg" xmlns:xlink="http://www.w3.org/1999/xlink" x="0px" y="0px"
	 viewBox="0 0 407.268 407.268" style="enable-background:new 0 0 407.268 407.268;" xml:space="preserve">
<path id="XMLID_600_" d="M304.406,259.42c-9.18-18.744-16.431-33.549-9.464-53.083c2.151-6.03,5.463-11.722,8.969-17.748
	c7.696-13.229,16.42-28.224,16.42-51.992c0-6.898-3.487-15.39-8.767-28.245c-9.307-22.661-23.37-56.907-23.37-99.352
	c0-4.971-4.029-9-9-9h-33.026c-4.971,0-9,4.029-9,9v42.532c0,18.489-15.043,33.532-33.534,33.532
	c-18.489,0-33.532-15.042-33.532-33.532V9c0-4.971-4.029-9-9-9h-33.03c-4.971,0-9,4.029-9,9c0,42.445-14.063,76.691-23.369,99.352
	c-5.278,12.854-8.766,21.347-8.766,28.245c0,23.767,8.723,38.76,16.419,51.989c3.507,6.027,6.818,11.72,8.969,17.75
	c6.967,19.535-0.284,34.34-9.464,53.083c-8.399,17.151-17.92,36.591-17.92,63.124c0,2.833,1.334,5.5,3.6,7.2l76.494,57.375
	l-0.1,11.069c-0.021,2.401,0.918,4.711,2.607,6.416c1.69,1.705,3.991,2.665,6.393,2.665h59.398c2.401,0,4.702-0.959,6.393-2.665
	c1.689-1.705,2.629-4.015,2.607-6.416l-0.1-11.069l76.494-57.375c2.266-1.7,3.6-4.367,3.6-7.2
	C322.327,296.011,312.807,276.571,304.406,259.42z M227.793,375.449c-2.289,1.717-3.625,4.419-3.6,7.28l0.059,6.539h-41.236
	l0.059-6.539c0.025-2.861-1.311-5.563-3.6-7.28l-76.427-57.325c0.987-20.176,8.6-35.722,15.979-50.788
	c9.718-19.844,19.768-40.364,10.252-67.047c-1.604-4.497-3.621-8.674-5.781-12.677c11.341,2.292,23.445-0.369,34.228-7.559
	c4.136-2.757,5.252-8.345,2.495-12.481c-2.758-4.136-8.348-5.252-12.481-2.495c-4.937,3.292-12.65,6.787-21.347,4.744
	c-7.409-1.741-14.099-7.359-19.386-16.266c-1.298-5.033-2.069-10.585-2.069-16.96c0-3.346,3.771-12.527,7.417-21.407
	c9.191-22.384,22.771-55.454,24.528-97.19h15.22v33.532c0,25.345,18.394,46.476,42.532,50.745v27.327c0,4.971,4.029,9,9,9
	s9-4.029,9-9v-27.327c24.14-4.27,42.534-25.4,42.534-50.745V18h15.216c1.757,41.736,15.338,74.807,24.53,97.19
	c3.646,8.879,7.417,18.061,7.417,21.407c0,6.375-0.771,11.927-2.069,16.959c-5.285,8.907-11.975,14.525-19.385,16.266
	c-8.699,2.044-16.406-1.451-21.343-4.744c-4.136-2.759-9.724-1.643-12.481,2.493c-2.758,4.135-1.642,9.723,2.493,12.481
	c10.781,7.19,22.886,9.851,34.225,7.559c-2.16,4.003-4.178,8.181-5.781,12.677c-9.517,26.683,0.533,47.203,10.252,67.047
	c7.378,15.065,14.991,30.611,15.979,50.787L227.793,375.449z"/>
<g>
</g>
<g>
</g>
<g>
</g>
<g>
</g>
<g>
</g>
<g>
</g>
<g>
</g>
<g>
</g>
<g>
</g>
<g>
</g>
<g>
</g>
<g>
</g>
<g>
</g>
<g>
</g>
<g>
</g>
</svg>
